<svg xmlns="http://www.w3.org/2000/svg" width="199" height="127" fill="none"><g fill="#fff"><path d="M1.265 59.63C3.043 57.196 45.4.081 99.5.081s96.46 57.115 98.236 59.545a6.566 6.566 0 0 1 0 7.744c-1.776 2.431-44.136 59.547-98.236 59.547S3.043 69.802 1.265 67.372a6.559 6.559 0 0 1 0-7.743zM99.5 113.796c39.85 0 74.365-37.909 84.582-50.301-10.204-12.404-44.646-50.293-84.582-50.293-39.848 0-74.36 37.902-84.582 50.301 10.204 12.404 44.646 50.293 84.582 50.293z"/><path d="M99.501 24.393c21.704 0 39.363 17.659 39.363 39.363s-17.659 39.363-39.363 39.363S60.138 85.46 60.138 63.756s17.659-39.363 39.363-39.363zm0 65.605c14.47 0 26.242-11.772 26.242-26.242s-11.772-26.241-26.242-26.241-26.242 11.771-26.242 26.241c0 14.47 11.772 26.242 26.242 26.242z"/></g></svg>