<svg width="172" height="50" fill="none" xmlns="http://www.w3.org/2000/svg"><path d="M10.467.438L15.7 14.37l5.234 13.973H0L5.233 14.37 10.467.438zm127.789.279v27.269h-3.632V10.828l-8.983 11.704-8.983-11.704v17.158h-3.71V0l12.693 16.48L138.256 0v.717zM33.666 1.87l6.64 9.753 6.678-9.912h4.452l-8.944 13.216 8.827 13.018h-4.452l-6.6-9.714-6.523 9.754h-4.452l8.787-13.018-8.905-13.256h4.453l.039.159zm27.651-.16h3.437v26.235h-3.71V1.712h.273zm100.294 48.17v-5.375h-1.562v-1.114h4.14v1.114h-1.562v5.374h-1.016zm-23.238-2.389l1.055.398c-.157.717-.43 1.274-.781 1.592-.391.359-.86.518-1.406.518-.664 0-1.211-.239-1.641-.756-.507-.677-.703-1.473-.703-2.548s.196-1.99.703-2.588c.43-.557 1.016-.796 1.758-.796.586 0 1.054.2 1.445.597.312.319.508.717.664 1.314l-1.055.318c-.117-.358-.195-.597-.39-.796-.195-.199-.43-.318-.703-.318-.391 0-.703.199-.937.517-.235.359-.391.916-.391 1.712 0 .796.156 1.354.391 1.712.195.358.507.517.898.517.312 0 .507-.12.742-.318.156-.239.312-.597.351-1.075zm-28.354 2.389v-6.49h3.906v1.115h-2.812v1.434h2.577v1.114h-2.577v1.791h2.89v1.075h-3.984v-.04zm-22.262-6.49h1.055v4.101c0 .677-.117 1.155-.195 1.473-.157.358-.352.597-.586.756-.235.2-.547.24-.937.24-.508 0-.899-.16-1.211-.518-.235-.359-.39-.876-.39-1.593l1.015-.159c0 .358.039.677.117.796.156.2.312.319.547.319.195 0 .351-.04.507-.2.117-.198.157-.517.157-1.074v-4.14h-.079zm-27.924 3.305c0-.756.156-1.433.351-1.95.235-.439.508-.877.899-1.116a2.59 2.59 0 0 1 1.288-.358c.742 0 1.328.319 1.836.876.43.597.703 1.433.703 2.508 0 1.115-.234 1.95-.742 2.548-.43.557-1.055.796-1.797.796s-1.327-.239-1.796-.756c-.508-.637-.742-1.473-.742-2.548zm1.093-.04c0 .756.157 1.314.43 1.672.234.398.586.557 1.015.557.43 0 .782-.159 1.055-.557.234-.358.39-.916.39-1.672 0-.756-.117-1.314-.39-1.672-.234-.358-.586-.557-1.055-.557-.39 0-.742.199-1.054.557-.234.319-.39.876-.39 1.672zM34.681 49.88v-6.488h2.187c.586 0 1.016.04 1.25.199.234.12.43.318.586.597.156.239.234.597.234 1.035 0 .517-.156.916-.39 1.234-.196.319-.547.517-1.016.597.196.16.39.358.547.518.156.199.352.557.586 1.075l.664 1.273h-1.25l-.781-1.433a4.965 4.965 0 0 0-.547-.955c-.117-.12-.195-.2-.312-.24-.117-.039-.313-.039-.547-.039h-.195v2.707H34.68v-.08zm1.055-3.741h.78c.43 0 .743 0 .9-.04a.486.486 0 0 0 .312-.24.81.81 0 0 0 .156-.517c0-.199-.04-.398-.157-.517-.038-.16-.195-.2-.312-.239-.117-.04-.39-.04-.898-.04h-.781v1.593zM9.686 49.88v-6.488h1.68c.663 0 1.054.04 1.249.12.312.118.547.318.742.676.195.318.312.756.312 1.274 0 .438-.039.876-.234 1.154-.156.319-.39.558-.664.677-.234.16-.703.2-1.328.2h-.703v2.427H9.686v-.04zm1.054-5.374v1.832h.586c.39 0 .664 0 .781-.04.117-.04.235-.16.352-.319.117-.159.117-.358.117-.557 0-.2 0-.398-.117-.557a1.255 1.255 0 0 0-.352-.319c-.156-.04-.43-.04-.898-.04h-.469zM161.533.438l5.234 13.933L172 28.344h-20.934l5.234-13.973L161.533.438zM88.031 1.99c6.874 0 12.537 5.693 12.537 12.78 0 7.085-5.663 12.738-12.537 12.738-6.952 0-12.576-5.693-12.576-12.779S81.079 1.99 88.031 1.99z" fill="#040404"/></svg>