<svg width="20" height="20" fill="none" xmlns="http://www.w3.org/2000/svg"><path fill-rule="evenodd" clip-rule="evenodd" d="M6.29 20c7.547 0 11.675-7.695 11.675-14.368 0-.22 0-.437-.012-.654A9.649 9.649 0 0 0 20 2.364a7.018 7.018 0 0 1-2.356.795c.856-.63 1.497-1.623 1.804-2.793a7.367 7.367 0 0 1-2.606 1.226c-1.554-2.034-4.153-2.132-5.806-.22-1.065 1.234-1.518 3.072-1.187 4.826C6.55 5.994 3.476 4.076 1.392.922.303 3.23.86 6.181 2.663 7.662A3.51 3.51 0 0 1 .8 7.032v.063c.001 2.404 1.378 4.474 3.292 4.95a3.342 3.342 0 0 1-1.852.086c.537 2.058 2.078 3.467 3.833 3.508-1.453 1.405-3.248 2.168-5.096 2.166A6.868 6.868 0 0 1 0 17.732C1.877 19.214 4.06 20 6.29 19.996" fill="#000"/></svg>