<?xml version="1.0" encoding="UTF-8" standalone="no"?>
<svg
   xmlns:dc="http://purl.org/dc/elements/1.1/"
   xmlns:cc="http://creativecommons.org/ns#"
   xmlns:rdf="http://www.w3.org/1999/02/22-rdf-syntax-ns#"
   xmlns:svg="http://www.w3.org/2000/svg"
   xmlns="http://www.w3.org/2000/svg"
   xmlns:sodipodi="http://sodipodi.sourceforge.net/DTD/sodipodi-0.dtd"
   xmlns:inkscape="http://www.inkscape.org/namespaces/inkscape"
   width="199"
   height="127"
   viewBox="0 0 199 127"
   fill="none"
   version="1.1"
   id="svg82"
   sodipodi:docname="eye.svg"
   inkscape:version="0.92.3 (2405546, 2018-03-11)">
  <metadata
     id="metadata88">
    <rdf:RDF>
      <cc:Work
         rdf:about="">
        <dc:format>image/svg+xml</dc:format>
        <dc:type
           rdf:resource="http://purl.org/dc/dcmitype/StillImage" />
      </cc:Work>
    </rdf:RDF>
  </metadata>
  <defs
     id="defs86" />
  <sodipodi:namedview
     pagecolor="#ffffff"
     bordercolor="#666666"
     borderopacity="1"
     objecttolerance="10"
     gridtolerance="10"
     guidetolerance="10"
     inkscape:pageopacity="0"
     inkscape:pageshadow="2"
     inkscape:window-width="1366"
     inkscape:window-height="703"
     id="namedview84"
     showgrid="false"
     inkscape:zoom="3.9055118"
     inkscape:cx="99.5"
     inkscape:cy="25.196024"
     inkscape:window-x="0"
     inkscape:window-y="0"
     inkscape:window-maximized="1"
     inkscape:current-layer="svg82" />
  <g
     id="g92">
    <path
       style="fill:#ffffff"
       id="path78"
       fill="white"
       d="M1.26474 59.6294C3.04253 57.1975 45.4012 0.0823975 99.501 0.0823975C153.601 0.0823975 195.961 57.1975 197.737 59.6271C199.421 61.9342 199.421 65.0634 197.737 67.3706C195.961 69.8025 153.601 126.918 99.501 126.918C45.4012 126.918 3.04253 69.8021 1.26474 67.3725C-0.421326 65.0658 -0.421326 61.9342 1.26474 59.6294ZM99.501 113.797C139.351 113.797 173.866 75.8883 184.083 63.4955C173.879 51.0918 139.437 13.2032 99.501 13.2032C59.6527 13.2032 25.1405 51.105 14.9192 63.5044C25.123 75.9078 59.5652 113.797 99.501 113.797Z" />
    <path
       style="fill:#ffffff"
       inkscape:connector-curvature="0"
       id="path80"
       d="m 99.501,24.393348 c 21.704,0 39.363,17.6586 39.363,39.3628 0,21.7043 -17.659,39.362902 -39.363,39.362902 -21.7043,0 -39.3628,-17.658602 -39.3628,-39.362902 0,-21.7042 17.6585,-39.3628 39.3628,-39.3628 z m 0,65.6045 c 14.47,0 26.242,-11.7718 26.242,-26.2417 0,-14.4698 -11.772,-26.2416 -26.242,-26.2416 -14.4699,0 -26.2416,11.7718 -26.2416,26.2416 0,14.4699 11.7713,26.2417 26.2416,26.2417 z" />
  </g>
</svg>
