<svg width="15" height="22" viewBox="0 0 15 22" fill="none" xmlns="http://www.w3.org/2000/svg">
<path d="M13.749 0.00457747L10.5071 0C6.86493 0 4.5112 2.12509 4.5112 5.41423V7.91055H1.25161C0.969943 7.91055 0.741852 8.1115 0.741852 8.35937V11.9763C0.741852 12.2241 0.970203 12.4249 1.25161 12.4249H4.5112V21.5514C4.5112 21.7993 4.73929 22 5.02096 22H9.2738C9.55547 22 9.78356 21.799 9.78356 21.5514V12.4249H13.5948C13.8765 12.4249 14.1045 12.2241 14.1045 11.9763L14.1061 8.35937C14.1061 8.24036 14.0523 8.12638 13.9568 8.04215C13.8614 7.95793 13.7313 7.91055 13.5961 7.91055H9.78356V5.79439C9.78356 4.77727 10.059 4.26094 11.5646 4.26094L13.7485 4.26025C14.0299 4.26025 14.258 4.0593 14.258 3.81166V0.453169C14.258 0.205757 14.0302 0.00503522 13.749 0.00457747Z" fill="black"/>
</svg>
