<svg width="172" height="50" viewBox="0 0 172 50" fill="none" xmlns="http://www.w3.org/2000/svg">
<path d="M10.4669 0.437898L15.7003 14.371L20.9338 28.344H10.4669H0L5.23343 14.371L10.4669 0.437898ZM138.256 0.71656V27.9857H134.624V10.828L125.641 22.5319L116.658 10.828V27.9857H112.948C112.948 18.6703 112.948 9.31529 112.948 0L125.641 16.4809L138.256 0V0.71656ZM33.6657 1.87102L40.3051 11.6242L46.9837 1.71178H51.4359L42.4923 14.9283L51.3188 27.9459H46.8666L40.2661 18.2324L33.7438 27.9857H29.2916L38.0791 14.9682L29.1745 1.71178H33.6267L33.6657 1.87102ZM61.317 1.71178H64.7539V27.9459H61.0437V1.71178H61.317ZM161.611 49.8805V44.5064H160.049V43.3917H164.189V44.5064H162.627V49.8805H161.611ZM138.373 47.4921L139.428 47.8902C139.271 48.6067 138.998 49.164 138.647 49.4824C138.256 49.8407 137.787 50 137.241 50C136.577 50 136.03 49.7612 135.6 49.2436C135.093 48.5669 134.897 47.7707 134.897 46.6959C134.897 45.621 135.093 44.7053 135.6 44.1083C136.03 43.551 136.616 43.3121 137.358 43.3121C137.944 43.3121 138.412 43.5112 138.803 43.9093C139.115 44.2278 139.311 44.6259 139.467 45.2229L138.412 45.5414C138.295 45.1831 138.217 44.9443 138.022 44.7452C137.827 44.5462 137.592 44.4267 137.319 44.4267C136.928 44.4267 136.616 44.6259 136.382 44.9443C136.147 45.3026 135.991 45.8598 135.991 46.656C135.991 47.4522 136.147 48.0095 136.382 48.3678C136.577 48.726 136.889 48.8853 137.28 48.8853C137.592 48.8853 137.787 48.7659 138.022 48.5669C138.178 48.3281 138.334 47.9698 138.373 47.4921ZM110.019 49.8805V43.3917H113.925V44.5064H111.113V45.9395H113.69V47.0541H111.113V48.8455H114.003V49.9203H110.019V49.8805ZM87.7575 43.3917H88.812V47.4921C88.812 48.1688 88.6949 48.6466 88.6166 48.965C88.4605 49.3233 88.2652 49.5621 88.0308 49.7214C87.7965 49.9203 87.4842 49.9602 87.0936 49.9602C86.5858 49.9602 86.1952 49.801 85.8829 49.4428C85.6484 49.0843 85.4923 48.5669 85.4923 47.8503L86.5077 47.691C86.5077 48.0493 86.5468 48.3678 86.6249 48.4872C86.7811 48.6864 86.9374 48.8057 87.1717 48.8057C87.3669 48.8057 87.5232 48.7659 87.6794 48.6067C87.7965 48.4076 87.8356 48.0891 87.8356 47.5319V43.3917H87.7575ZM59.833 46.6959C59.833 45.9395 59.9891 45.2628 60.1843 44.7452C60.4188 44.3072 60.6921 43.8695 61.0827 43.6305C61.4341 43.4316 61.8638 43.2722 62.3715 43.2722C63.1135 43.2722 63.6993 43.5907 64.2071 44.1481C64.6367 44.7452 64.91 45.5812 64.91 46.656C64.91 47.7707 64.6758 48.6067 64.168 49.2038C63.7384 49.7612 63.1135 50 62.3715 50C61.6295 50 61.0437 49.7612 60.575 49.2436C60.0672 48.6067 59.833 47.7707 59.833 46.6959ZM60.9264 46.656C60.9264 47.4124 61.0827 47.9698 61.356 48.3281C61.5905 48.726 61.9418 48.8853 62.3715 48.8853C62.8012 48.8853 63.1525 48.726 63.426 48.3281C63.6603 47.9698 63.8165 47.4124 63.8165 46.656C63.8165 45.8997 63.6993 45.3424 63.426 44.9841C63.1916 44.6259 62.8402 44.4267 62.3715 44.4267C61.9809 44.4267 61.6295 44.6259 61.317 44.9841C61.0827 45.3026 60.9264 45.8598 60.9264 46.656ZM34.6812 49.8805V43.3917H36.8684C37.4542 43.3917 37.8837 43.4316 38.1181 43.5907C38.3524 43.7102 38.5476 43.9093 38.704 44.1879C38.8601 44.4267 38.9382 44.785 38.9382 45.2229C38.9382 45.7405 38.782 46.1385 38.5476 46.4571C38.3524 46.7755 38.001 46.9745 37.5323 47.0541C37.7275 47.2134 37.9227 47.4124 38.0791 47.5717C38.2353 47.7707 38.4305 48.129 38.6649 48.6466L39.3288 49.9203H38.0791L37.2979 48.4872C37.0636 47.9698 36.8684 47.691 36.7511 47.5319C36.6339 47.4124 36.5559 47.3328 36.4387 47.2929C36.3216 47.2531 36.1262 47.2531 35.8919 47.2531H35.6967V49.9602H34.6812V49.8805ZM35.7358 46.1386H36.5168C36.9465 46.1386 37.2588 46.1386 37.4152 46.0988C37.5713 46.059 37.6494 45.9793 37.7275 45.8598C37.8446 45.7007 37.8837 45.5414 37.8837 45.3424C37.8837 45.1433 37.8446 44.9443 37.7275 44.8248C37.6885 44.6655 37.5323 44.6259 37.4152 44.586C37.2979 44.5462 37.0245 44.5462 36.5168 44.5462H35.7358V46.1386ZM9.68573 49.8805V43.3917H11.3651C12.0291 43.3917 12.4196 43.4315 12.6149 43.5112C12.9273 43.6305 13.1617 43.8297 13.357 44.1879C13.5522 44.5064 13.6694 44.9443 13.6694 45.4617C13.6694 45.8997 13.6303 46.3376 13.4351 46.6162C13.2788 46.9347 13.0445 47.1736 12.7711 47.2929C12.5368 47.4522 12.0681 47.4921 11.4432 47.4921H10.7402V49.9203H9.68573V49.8805ZM10.7402 44.5064V46.3376H11.3261C11.7166 46.3376 11.99 46.3376 12.1072 46.2978C12.2243 46.2579 12.3415 46.1386 12.4587 45.9793C12.5758 45.82 12.5758 45.621 12.5758 45.4219C12.5758 45.2229 12.5758 45.024 12.4587 44.8647C12.3415 44.7053 12.2243 44.6259 12.1072 44.5462C11.951 44.5064 11.6776 44.5064 11.2089 44.5064H10.7402ZM161.533 0.437898L166.767 14.371L172 28.344H161.533H151.066L156.3 14.371L161.533 0.437898ZM88.0308 1.99045C94.9046 1.99045 100.568 7.68312 100.568 14.7691C100.568 21.8552 94.9046 27.5079 88.0308 27.5079C81.0791 27.5079 75.455 21.8153 75.455 14.7293C75.455 7.64331 81.0791 1.99045 88.0308 1.99045Z" fill="#040404"/>
</svg>
