<svg width="20" height="20" viewBox="0 0 20 20" fill="none" xmlns="http://www.w3.org/2000/svg">
<path fill-rule="evenodd" clip-rule="evenodd" d="M6.29 20C13.837 20 17.965 12.3046 17.965 5.63183C17.965 5.41277 17.965 5.19494 17.953 4.97834C18.756 4.26454 19.449 3.37845 20 2.36437C19.252 2.77296 18.457 3.04125 17.644 3.15939C18.5 2.52806 19.141 1.53613 19.448 0.365753C18.642 0.954017 17.761 1.36876 16.842 1.59151C15.288 -0.441572 12.689 -0.540027 11.036 1.37245C9.971 2.60559 9.518 4.44422 9.849 6.19794C6.55 5.99365 3.476 4.07625 1.392 0.922019C0.303 3.22954 0.86 6.18071 2.663 7.66245C2.01 7.63906 1.371 7.42246 0.8 7.03111V7.0951C0.801 9.49862 2.178 11.5686 4.092 12.0449C3.488 12.248 2.854 12.2775 2.24 12.131C2.777 14.1887 4.318 15.5979 6.073 15.6385C4.62 17.0439 2.825 17.8069 0.977 17.8045C0.651 17.8032 0.325 17.7799 0 17.7319C1.877 19.2136 4.06 20 6.29 19.9963" fill="black"/>
</svg>
